<?xml version="1.0" encoding="utf-8"?>
<!-- Generator: Adobe Illustrator 25.4.1, SVG Export Plug-In . SVG Version: 6.00 Build 0)  -->
<svg version="1.1"
	 id="svg2" inkscape:export-filename="./love-logo-1024x240.png" inkscape:export-xdpi="90" inkscape:export-ydpi="90" inkscape:version="0.91 r13725" sodipodi:docname="love-logo.svg" xmlns:cc="http://creativecommons.org/ns#" xmlns:dc="http://purl.org/dc/elements/1.1/" xmlns:inkscape="http://www.inkscape.org/namespaces/inkscape" xmlns:rdf="http://www.w3.org/1999/02/22-rdf-syntax-ns#" xmlns:sodipodi="http://sodipodi.sourceforge.net/DTD/sodipodi-0.dtd" xmlns:svg="http://www.w3.org/2000/svg"
	 xmlns="http://www.w3.org/2000/svg" xmlns:xlink="http://www.w3.org/1999/xlink" x="0px" y="0px" viewBox="0 0 1024 240"
	 style="enable-background:new 0 0 1024 240;" xml:space="preserve">
<style type="text/css">
	.st0{fill:#FFFFFF;}
	.st1{fill:none;}
</style>
<sodipodi:namedview  bordercolor="#666666" borderopacity="1" fit-margin-bottom="0" fit-margin-left="0" fit-margin-right="0" fit-margin-top="0" gridtolerance="10" guidetolerance="10" id="namedview55" inkscape:current-layer="svg2" inkscape:cx="426.3135" inkscape:cy="-661.66365" inkscape:pageopacity="0" inkscape:pageshadow="2" inkscape:window-height="1061" inkscape:window-maximized="0" inkscape:window-width="962" inkscape:window-x="958" inkscape:window-y="0" inkscape:zoom="0.27552558" objecttolerance="10" pagecolor="#ffffff" showgrid="false">
	</sodipodi:namedview>
<g id="g4152" transform="matrix(1.9969705,0,0,1.9969705,0,0.15491307)">
	<circle id="circle4213" class="st0" cx="114.3" cy="10.3" r="10"/>
	<circle id="circle4215" class="st0" cx="139.6" cy="10" r="10"/>
	<g id="g4219" transform="translate(5.4423335e-4,2.0703125e-6)">
		<g id="g4221">
			<path id="path4223" inkscape:connector-curvature="0" class="st1" d="M126.4,29.9c-55.3,0-55.5,85-0.4,85
				C181.1,114.9,181.9,29.9,126.4,29.9"/>
			<path id="path4225" inkscape:connector-curvature="0" class="st0" d="M126.4,24.9c-16.1,0.2-30.6,7.2-39.2,20.9
				c-7.7,12.1-9.1,27.8-5.3,41.5c4.1,14.5,14.8,25.8,29.1,30.5c15.5,5.1,33.6,1.7,46-8.9c14.4-12.3,18.6-33.7,13.7-51.3
				C165.1,37.3,147,25.1,126.4,24.9c-6.5-0.1-6.4,9.9,0,10c14.6,0.1,27.7,7.5,33.3,21.4c5,12.5,3.7,27.1-3.5,38.4
				c-8.2,12.9-24.4,17.4-38.9,14.4c-14.1-2.9-23.5-14-26.6-27.7c-2.4-10.6-0.3-22.1,5.5-31.3c6.6-10.4,18.2-15.1,30.2-15.3
				C132.9,34.8,132.9,24.8,126.4,24.9L126.4,24.9L126.4,24.9z"/>
		</g>
	</g>
	<g id="g4227" transform="translate(5.4423335e-4,2.0703125e-6)">
		<g id="g4229">
			<path id="path4231" inkscape:connector-curvature="0" class="st1" d="M178.4,29.9c48.7,110.5,51.3,116.3,104,0"/>
			<path id="path4233" inkscape:connector-curvature="0" class="st0" d="M174.1,32.4c9.6,21.7,18.7,44,30.4,64.7
				c5.2,9.3,12.6,21.9,24.5,22.8c11.6,0.9,20-12.9,25.1-21.2c12.9-20.9,22.6-44,32.7-66.3c2.6-5.8-6-10.9-8.6-5
				c-9.6,21.2-18.9,42.7-30.6,62.8c-3.2,5.5-6.6,11-11,15.5c-1.5,1.6-2.5,2.4-4.3,3.4c-1.2,0.7-2.1,0.9-3.4,0.8
				c-0.6-0.1-0.6,0,0.1,0c-0.4-0.1-0.8-0.2-1.2-0.3c-0.2,0-0.8-0.3-1.7-0.9c-1.6-1-3-2.4-4.5-4.2c-4.2-4.7-7.4-10.6-10.4-16.1
				c-10.7-19.7-19.4-40.6-28.4-61.1C180.1,21.5,171.5,26.6,174.1,32.4L174.1,32.4L174.1,32.4z"/>
		</g>
	</g>
	<g id="g4237" transform="translate(5.4423335e-4,2.0703125e-6)">
		<g id="g4239">
			<path id="path4241" inkscape:connector-curvature="0" class="st1" d="M333,87.3c57.1-12.9,36.7-53.9,3.2-57.1s-51.8,33.4-41,59.3
				c10.8,25.9,32.3,27,51.8,24.8"/>
			<path id="path4243" inkscape:connector-curvature="0" class="st0" d="M334.3,92.1c16.1-3.8,37.6-12.3,39.4-31.4
				c1.4-14.1-9.8-25.9-21.8-31.4c-17.4-7.9-37.9-4.6-51.3,9.4c-13.1,13.8-17.4,35.8-9.8,53.3c4.8,11,12.7,20.2,24,24.6
				c10.2,4,21.3,3.8,32,2.7c6.3-0.7,6.4-10.7,0-10c-9.5,1-19.2,1.3-28.3-1.9c-10.2-3.6-17.1-13.4-20.1-23.5
				c-5.3-17.5,3.7-39.3,20.8-46.5c13.8-5.8,32.8-1.3,41.3,11.5c9.1,13.7-4,24.9-16.2,29.7c-4.2,1.7-8.5,2.8-12.9,3.9
				C325.4,83.9,328,93.5,334.3,92.1L334.3,92.1z"/>
		</g>
	</g>
	<g id="g4247" transform="translate(5.4423335e-4,2.0703125e-6)">
		<g id="g4249">
			<path id="path4251" inkscape:connector-curvature="0" class="st1" d="M10.8,29.2C-9,84.9,23.6,125.8,72.4,112.9"/>
			<path id="path4253" inkscape:connector-curvature="0" class="st0" d="M6,27.9c-8.2,23.5-9.7,51.8,6.3,72.4
				c14.7,19,39.2,23.1,61.4,17.4c6.2-1.6,3.6-11.2-2.7-9.6c-18.7,4.8-39.4,1.7-51.5-14.7C6.1,75.3,8.6,50.7,15.6,30.6
				C17.8,24.4,8.1,21.8,6,27.9L6,27.9z"/>
		</g>
	</g>
	<g id="g4255" transform="translate(5.4423335e-4,2.0703125e-6)">
	</g>
	<path id="path4257" inkscape:connector-curvature="0" sodipodi:nodetypes="czzczzc" class="st0" d="M467.7,51.5
		c0,0,6.8-25.4,16-27.1c9.2-1.7,22.9,0.8,28.5,22c5.5,21.2-25.9,64.4-41.8,73.7c-31.9-22.2-46.8-60.2-47.2-72.3s14.1-26,27.2-25.9
		C463.5,22.1,465.1,41.5,467.7,51.5L467.7,51.5z"/>
</g>
</svg>
